<mxfile host="app.diagrams.net" modified="2021-04-15T01:40:42.432Z" agent="5.0 (Windows NT 10.0; Win64; x64) AppleWebKit/537.36 (KHTML, like Gecko) Chrome/89.0.4389.128 Safari/537.36" etag="JKe8TrsZvf1GlJc9_INL" version="14.4.7" type="github">
  <diagram id="ZZ1eMGLssHmFAowBBWQn" name="Page-1">
    <mxGraphModel dx="1422" dy="1931" grid="1" gridSize="10" guides="1" tooltips="1" connect="1" arrows="1" fold="1" page="1" pageScale="1" pageWidth="827" pageHeight="1169" background="none" math="0" shadow="0">
      <root>
        <mxCell id="0" />
        <mxCell id="1" parent="0" />
        <mxCell id="7zLly9GSP45sr4WHIFw5-1" value="" style="strokeWidth=1;shadow=0;dashed=0;align=center;shape=mxgraph.mockup.containers.browserWindow;rSize=0;strokeColor2=#008cff;strokeColor3=#c4c4c4;mainText=,;recursiveResize=0;fillColor=#f5f5f5;strokeColor=none;noLabel=1;fontColor=none;html=1;" vertex="1" parent="1">
          <mxGeometry x="40" y="-120" width="1240" height="830" as="geometry" />
        </mxCell>
        <mxCell id="7zLly9GSP45sr4WHIFw5-2" value="Page 1" style="strokeWidth=1;shadow=0;dashed=0;align=center;html=1;shape=mxgraph.mockup.containers.anchor;fontSize=17;fontColor=#666666;align=left;" vertex="1" parent="7zLly9GSP45sr4WHIFw5-1">
          <mxGeometry x="60" y="12" width="110" height="26" as="geometry" />
        </mxCell>
        <mxCell id="7zLly9GSP45sr4WHIFw5-3" value="main/cast/1" style="strokeWidth=1;shadow=0;dashed=0;align=center;html=1;shape=mxgraph.mockup.containers.anchor;rSize=0;fontSize=17;fontColor=#666666;align=left;" vertex="1" parent="7zLly9GSP45sr4WHIFw5-1">
          <mxGeometry x="130" y="60" width="250" height="26" as="geometry" />
        </mxCell>
        <mxCell id="7zLly9GSP45sr4WHIFw5-9" value="" style="strokeWidth=1;shadow=0;dashed=0;align=center;html=1;shape=mxgraph.mockup.containers.marginRect2;rectMarginTop=32;strokeColor=#666666;gradientColor=none;" vertex="1" parent="7zLly9GSP45sr4WHIFw5-1">
          <mxGeometry x="230" y="140" width="540" height="620" as="geometry" />
        </mxCell>
        <mxCell id="7zLly9GSP45sr4WHIFw5-10" value="기본정보" style="strokeColor=inherit;fillColor=inherit;gradientColor=inherit;strokeWidth=1;shadow=0;dashed=0;align=center;html=1;shape=mxgraph.mockup.containers.rrect;rSize=0;fontSize=12;fontColor=#666666;gradientColor=none;" vertex="1" parent="7zLly9GSP45sr4WHIFw5-9">
          <mxGeometry width="80" height="25" relative="1" as="geometry">
            <mxPoint x="10" as="offset" />
          </mxGeometry>
        </mxCell>
        <mxCell id="7zLly9GSP45sr4WHIFw5-11" value="&lt;font style=&quot;font-size: 11px&quot;&gt;프로그램 약관&lt;/font&gt;" style="strokeWidth=1;shadow=0;dashed=0;align=center;html=1;shape=mxgraph.mockup.containers.rrect;rSize=0;fontSize=17;fontColor=#ffffff;strokeColor=#008cff;fillColor=#008cff;" vertex="1" parent="7zLly9GSP45sr4WHIFw5-9">
          <mxGeometry width="80" height="25" relative="1" as="geometry">
            <mxPoint x="93" as="offset" />
          </mxGeometry>
        </mxCell>
        <mxCell id="7zLly9GSP45sr4WHIFw5-13" value="" style="strokeWidth=1;shadow=0;dashed=0;align=center;html=1;shape=mxgraph.mockup.containers.topButton;rSize=5;strokeColor=#008cff;fillColor=#008cff;gradientColor=none;resizeWidth=1;movable=0;deletable=1;" vertex="1" parent="7zLly9GSP45sr4WHIFw5-9">
          <mxGeometry width="540" height="7" relative="1" as="geometry">
            <mxPoint y="25" as="offset" />
          </mxGeometry>
        </mxCell>
        <mxCell id="7zLly9GSP45sr4WHIFw5-20" value="홈" style="html=1;shadow=0;dashed=0;shape=mxgraph.bootstrap.rrect;rSize=5;strokeColor=none;fontSize=14;align=left;spacing=15;fillColor=none;fontColor=#0085FC;" vertex="1" parent="7zLly9GSP45sr4WHIFw5-1">
          <mxGeometry x="5" y="140" width="220" height="40" as="geometry" />
        </mxCell>
        <mxCell id="7zLly9GSP45sr4WHIFw5-21" value="코드 관리" style="fontSize=14;align=left;spacing=15;labelBackgroundColor=none;strokeColor=none;fillColor=none;fontColor=#0085FC;" vertex="1" parent="7zLly9GSP45sr4WHIFw5-1">
          <mxGeometry x="5" y="180" width="220" height="40" as="geometry" />
        </mxCell>
        <mxCell id="7zLly9GSP45sr4WHIFw5-22" value="출연진 관리" style="strokeColor=none;fontSize=14;align=left;spacing=15;fontColor=#FFFFFF;fillColor=#0085FC;" vertex="1" parent="7zLly9GSP45sr4WHIFw5-1">
          <mxGeometry x="5" y="220" width="220" height="40" as="geometry" />
        </mxCell>
        <mxCell id="7zLly9GSP45sr4WHIFw5-23" value="프로그램 관리" style="fillColor=none;strokeColor=none;fontSize=14;fontColor=#0085FC;align=left;spacing=15;" vertex="1" parent="7zLly9GSP45sr4WHIFw5-1">
          <mxGeometry x="5" y="260" width="220" height="40" as="geometry" />
        </mxCell>
        <mxCell id="7zLly9GSP45sr4WHIFw5-25" value="약관 관리" style="fillColor=none;strokeColor=none;fontSize=14;fontColor=#0085FC;align=left;spacing=15;" vertex="1" parent="7zLly9GSP45sr4WHIFw5-1">
          <mxGeometry x="5" y="300" width="220" height="40" as="geometry" />
        </mxCell>
        <mxCell id="7zLly9GSP45sr4WHIFw5-121" value="" style="verticalLabelPosition=bottom;verticalAlign=top;html=1;shape=mxgraph.basic.rect;fillColor2=none;strokeWidth=1;size=20;indent=5;labelBackgroundColor=none;fontSize=12;fontColor=#0085FC;" vertex="1" parent="7zLly9GSP45sr4WHIFw5-1">
          <mxGeometry x="787" y="167" width="433" height="593" as="geometry" />
        </mxCell>
        <mxCell id="7zLly9GSP45sr4WHIFw5-123" value="" style="verticalLabelPosition=bottom;verticalAlign=top;html=1;shape=mxgraph.basic.patternFillRect;fillStyle=diagGrid;step=5;fillStrokeWidth=0.2;fillStrokeColor=#dddddd;labelBackgroundColor=none;strokeColor=#000000;fillColor=#ffffff;fontSize=12;fontColor=#0085FC;" vertex="1" parent="7zLly9GSP45sr4WHIFw5-1">
          <mxGeometry x="798.5" y="210" width="410" height="249" as="geometry" />
        </mxCell>
        <mxCell id="7zLly9GSP45sr4WHIFw5-124" value="" style="verticalLabelPosition=bottom;verticalAlign=top;html=1;shape=mxgraph.basic.patternFillRect;fillStyle=diagGrid;step=5;fillStrokeWidth=0.2;fillStrokeColor=#dddddd;labelBackgroundColor=none;strokeColor=#000000;fillColor=#ffffff;fontSize=12;fontColor=#0085FC;" vertex="1" parent="7zLly9GSP45sr4WHIFw5-1">
          <mxGeometry x="798.5" y="500" width="410" height="239" as="geometry" />
        </mxCell>
        <mxCell id="7zLly9GSP45sr4WHIFw5-125" value="회차 리스트" style="strokeWidth=1;shadow=0;dashed=0;align=center;html=1;shape=mxgraph.mockup.text.textBox;fontColor=#666666;align=left;fontSize=13;spacingLeft=4;spacingTop=-3;strokeColor=#666666;mainText=;labelBackgroundColor=none;fillColor=#ffffff;fontStyle=1" vertex="1" parent="7zLly9GSP45sr4WHIFw5-1">
          <mxGeometry x="798.5" y="180" width="150" height="30" as="geometry" />
        </mxCell>
        <mxCell id="7zLly9GSP45sr4WHIFw5-130" value="회차를 선택해주세요" style="text;html=1;strokeColor=none;fillColor=none;align=center;verticalAlign=middle;whiteSpace=wrap;rounded=0;labelBackgroundColor=none;fontSize=12;fontColor=#0085FC;" vertex="1" parent="7zLly9GSP45sr4WHIFw5-1">
          <mxGeometry x="900.25" y="594" width="206.5" height="20" as="geometry" />
        </mxCell>
        <mxCell id="7zLly9GSP45sr4WHIFw5-131" value="출연정보" style="strokeWidth=1;shadow=0;dashed=0;align=center;html=1;shape=mxgraph.mockup.text.textBox;fontColor=#666666;align=left;fontSize=13;spacingLeft=4;spacingTop=-3;strokeColor=#666666;mainText=;labelBackgroundColor=none;fillColor=#ffffff;fontStyle=1" vertex="1" parent="7zLly9GSP45sr4WHIFw5-1">
          <mxGeometry x="798.5" y="470" width="150" height="30" as="geometry" />
        </mxCell>
        <mxCell id="7zLly9GSP45sr4WHIFw5-132" value="추가" style="strokeWidth=1;shadow=0;dashed=0;align=center;html=1;shape=mxgraph.mockup.buttons.button;strokeColor=#666666;fontColor=#ffffff;mainText=;buttonStyle=round;fontSize=13;fontStyle=1;fillColor=#008cff;whiteSpace=wrap;labelBackgroundColor=none;" vertex="1" parent="7zLly9GSP45sr4WHIFw5-1">
          <mxGeometry x="1138.5" y="180" width="70" height="30" as="geometry" />
        </mxCell>
        <mxCell id="7zLly9GSP45sr4WHIFw5-133" value="추가" style="strokeWidth=1;shadow=0;dashed=0;align=center;html=1;shape=mxgraph.mockup.buttons.button;strokeColor=#666666;fontColor=#ffffff;mainText=;buttonStyle=round;fontSize=13;fontStyle=1;fillColor=#008cff;whiteSpace=wrap;labelBackgroundColor=none;" vertex="1" parent="7zLly9GSP45sr4WHIFw5-1">
          <mxGeometry x="1138.5" y="470" width="70" height="30" as="geometry" />
        </mxCell>
      </root>
    </mxGraphModel>
  </diagram>
</mxfile>
